<svg height="511pt" viewBox="-21 0 511 511.9999" width="511pt" xmlns="http://www.w3.org/2000/svg"><path d="m35.210938 225.621094h399.195312v286.378906h-399.195312zm0 0" fill="#ea9d2d"/><path d="m182.738281 225.621094h104.140625v286.378906h-104.140625zm0 0" fill="#c7463b"/><path d="m139.351562 329.761719c-4.792968 0-8.679687-3.886719-8.679687-8.679688v-86.78125c0-4.792969 3.886719-8.679687 8.679687-8.679687 4.789063 0 8.675782 3.886718 8.675782 8.679687v86.78125c0 4.792969-3.886719 8.679688-8.675782 8.679688zm0 0" fill="#b9b9b9"/><path d="m200.097656 373.152344c0 33.546875-27.199218 60.746094-60.746094 60.746094-33.550781 0-60.75-27.199219-60.75-60.746094 0-33.550782 27.199219-60.75 60.75-60.75 33.546876 0 60.746094 27.199218 60.746094 60.75zm0 0" fill="#fbd699"/><path d="m157.695312 391.503906-18.34375 10.449219-18.347656-10.414063c-9.484375-5.386718-14.34375-16.332031-11.976562-26.980468 1.828125-7.941406 9.742187-12.898438 17.683594-11.070313 2.671874.613281 5.117187 1.957031 7.066406 3.886719l5.5625 5.542969 5.5625-5.542969c5.796875-5.730469 15.136718-5.675781 20.863281.117188 1.929687 1.949218 3.273437 4.394531 3.886719 7.066406 2.355468 10.632812-2.492188 21.558594-11.957032 26.945312zm0 0" fill="#ea6b65"/><path d="m235.121094 59.757812-45.863282-41.941406c-20.414062-18.335937-49.699218-22.960937-74.769531-11.808594-17.832031 8.054688-31.316406 23.414063-36.996093 42.140626-5.613282 18.671874-2.824219 38.863281 7.644531 55.3125l2.394531 3.765624c12.539062 19.78125 34.371094 31.722657 57.789062 31.613282h72.132813c14.300781.058594 25.949219-11.472656 26.035156-25.773438v-34.371094c-.015625-7.207031-3.050781-14.074218-8.367187-18.9375zm-26.347656 44.710938h-63.453126c-11.507812.050781-22.234374-5.8125-28.402343-15.527344l-2.394531-3.773437c-5.152344-8.085938-6.519532-18.019531-3.75-27.195313 2.777343-9.207031 9.402343-16.757812 18.164062-20.714844 12.324219-5.480468 26.714844-3.214843 36.757812 5.785157l43.078126 39.390625zm0 0" fill="#b94137"/><path d="m230.851562 78.695312v34.371094c.085938 14.300782 11.734376 25.832032 26.035157 25.777344h72.132812c23.421875.105469 45.253907-11.835938 57.792969-31.617188l2.386719-3.765624c10.476562-16.445313 13.265625-36.640626 7.648437-55.3125-5.671875-18.726563-19.15625-34.089844-36.988281-42.140626-25.074219-11.152343-54.363281-6.527343-74.777344 11.808594l-45.863281 41.941406c-5.316406 4.867188-8.347656 11.734376-8.367188 18.9375zm34.710938 3.757813 43.078125-39.410156c10.046875-9 24.4375-11.265625 36.761719-5.785157 8.761718 3.957032 15.390625 11.507813 18.171875 20.714844 2.761719 9.179688 1.394531 19.105469-3.75 27.195313l-2.394531 3.773437c-6.171876 9.714844-16.902344 15.578125-28.410157 15.527344h-63.457031zm0 0" fill="#b94137"/><path d="m.5 130.164062h468.617188v112.816407h-468.617188zm0 0" fill="#f3af3e"/><path d="m174.0625 130.164062h121.492188v112.816407h-121.492188zm0 0" fill="#dc4d41"/><g fill="#ea9d2d"><path d="m356.300781 199.589844h17.355469v17.355468h-17.355469zm0 0"/><path d="m391.015625 199.589844h17.355469v17.355468h-17.355469zm0 0"/><path d="m425.726562 199.589844h17.355469v17.355468h-17.355469zm0 0"/></g></svg>